<svg xmlns="http://www.w3.org/2000/svg" xmlns:xlink="http://www.w3.org/1999/xlink" width="118" height="70" viewBox="0 0 118 70">
    <defs>
        <path id="a" d="M123.835 70.869H0V0h123.835z"/>
    </defs>
    <g fill="none" fill-rule="evenodd" transform="translate(-3 -7)">
        <mask id="b" fill="#fff">
            <use xlink:href="#a"/>
        </mask>
        <path fill="#FFF" d="M46.36 62.305c1.503 0 2.532.965 2.703 1.951h-5.398c.255-1.043 1.192-1.95 2.695-1.95zm5.571 2.96c0-3.095-2.417-5.601-5.57-5.601-3.153 0-5.72 2.506-5.72 5.6 0 3.095 2.567 5.605 5.72 5.605 1.657 0 3.198-.68 4.273-1.947l-1.96-1.7c-.646.545-1.254 1.005-2.397 1.005-1.143 0-2.471-.758-2.618-1.978h8.157c.07-.28.115-.725.115-.985zm6.177 5.588c2.655 0 4.544-1.357 4.544-3.652 0-1.731-1.118-2.55-3.308-3.112l-1.447-.375c-.862-.233-1.235-.443-1.235-.82 0-.443.538-.77 1.493-.77 1.047 0 1.872.382 2.775.92l1.607-1.974a6.789 6.789 0 0 0-4.174-1.404c-3.097 0-4.776 1.685-4.776 3.558 0 1.99 1.444 2.644 3.472 3.158l1.584.399c.631.163.958.328.958.748 0 .446-.446.797-1.4.797-1.282 0-2.455-.57-3.441-1.37l-1.711 2.092c1.353 1.22 3.15 1.805 5.06 1.805zM35.778 59.92l-.005 5.416c0 1.481-1.197 2.638-2.66 2.638-1.477 0-2.634-1.199-2.634-2.73l.001-5.324h-2.992v5.271c0 3.395 2.458 5.62 5.384 5.62 1.209 0 2.424-.455 3.202-1.292l.283 1.034h2.322V59.92h-2.902zm66.303 5.324c0-1.54 1.157-2.745 2.634-2.745h1.341v-2.837h-1.141c-1.536 0-2.396.46-3.131 1.264l-.282-1.007H99.18v10.632h2.901V65.244zm10.986 2.73c-1.477 0-2.634-1.198-2.634-2.729l-.001-2.6h4.248V59.96h-4.24v-3.24h-2.906V65.256c0 3.33 2.51 5.596 5.574 5.596.79 0 1.536-.165 2.254-.49l-1.173-2.633c-.34.158-.718.246-1.122.246zm-19.155-2.73c0-1.54-1.17-2.745-2.663-2.745-1.477 0-2.634 1.205-2.634 2.745 0 1.531 1.157 2.73 2.634 2.73 1.493 0 2.663-1.199 2.663-2.73zm2.922-5.324v10.633h-2.32l-.286-1.059c-.776.864-2.015 1.316-3.248 1.316-2.971 0-5.363-2.496-5.363-5.574s2.392-5.572 5.363-5.572c1.233 0 2.585.487 3.248 1.313l.287-1.057h2.32zm-18.575-.256a5.54 5.54 0 0 0-4.134 1.842c-.998-1.143-2.234-1.842-4.11-1.842-.704 0-2.125.361-2.97 1.289l-.285-1.033h-2.32v10.633h2.902V65.26c0-1.537 1.211-2.761 2.655-2.761 1.443 0 2.689 1.224 2.689 2.761v5.293h2.902V65.26c0-1.537 1.181-2.756 2.655-2.756 1.474 0 2.688 1.22 2.688 2.756v5.293h2.994V65.26c0-3.39-2.6-5.596-5.666-5.596zM17.206 65.26c0-1.54-1.17-2.745-2.663-2.745-1.41 0-2.634 1.208-2.634 2.738s1.193 2.738 2.634 2.738c1.493 0 2.663-1.2 2.663-2.73zm3.013-.024c0 3.078-2.392 5.574-5.367 5.574-1.229 0-2.512-.465-3.244-1.318l-.286 1.06H9v-16.65h2.903v6.719a5.015 5.015 0 0 1 2.95-.957c2.974 0 5.366 2.494 5.366 5.572zm2.032 5.317h2.906V53.902H22.25v16.65zm49.2-49.634c-3.08 0-5.585 2.515-5.585 5.608 0 3.092 2.506 5.607 5.585 5.607 3.08 0 5.588-2.515 5.588-5.607 0-3.093-2.508-5.608-5.588-5.608zm0 8.454a2.844 2.844 0 0 1-2.835-2.846 2.845 2.845 0 0 1 2.835-2.847 2.844 2.844 0 0 1 2.836 2.847 2.844 2.844 0 0 1-2.836 2.846zm-9.271 2.465c-3.08 0-5.586 2.516-5.586 5.608 0 3.092 2.505 5.608 5.586 5.608 3.08 0 5.586-2.516 5.586-5.608 0-3.092-2.506-5.608-5.586-5.608zm0 8.454a2.845 2.845 0 0 1-2.836-2.846 2.846 2.846 0 0 1 2.836-2.848 2.845 2.845 0 0 1 2.836 2.848 2.845 2.845 0 0 1-2.836 2.846zm-3.687-13.765c0-3.093-2.505-5.608-5.587-5.608-3.077 0-5.583 2.515-5.583 5.608 0 3.092 2.506 5.607 5.583 5.607 3.082 0 5.587-2.515 5.587-5.607zm-5.587 2.846a2.843 2.843 0 0 1-2.834-2.846 2.844 2.844 0 0 1 2.834-2.847 2.845 2.845 0 0 1 2.838 2.847 2.845 2.845 0 0 1-2.838 2.846zm9.274-8.158c3.08 0 5.586-2.516 5.586-5.608 0-3.092-2.506-5.607-5.586-5.607-3.08 0-5.586 2.515-5.586 5.607s2.505 5.608 5.586 5.608zm0-8.455a2.845 2.845 0 0 1 2.836 2.847 2.845 2.845 0 0 1-2.836 2.848 2.845 2.845 0 0 1-2.836-2.848 2.845 2.845 0 0 1 2.836-2.847z" mask="url(#b)"/>
    </g>
</svg>
