<svg id="Layer_1" data-name="Layer 1" xmlns="http://www.w3.org/2000/svg" viewBox="0 0 47.02 46.87"><defs><style>.cls-1{fill:#001eff;}</style></defs><title>icon</title><path class="cls-1" d="M22.74,46.87c-3.93,0-7.85-.19-11.75-.57l-.9-.09V45.3c0-9.73,0-17.58-.25-23.54L9.59,22,9,22.54l-.59.56-.67-.47c-1.25-.87-3.59-2.78-5.47-4.32L.67,17,0,16.48l.43-.74A94.75,94.75,0,0,1,8,4.76l.23-.21A40,40,0,0,1,14.82,1.6c1-.38,1.92-.74,2.7-1.07L18.57.08l.3,1.1a4.31,4.31,0,0,0,4.49,3.35A4.35,4.35,0,0,0,27.91,1.1L28.2,0l1.06.43c.77.31,1.7.66,2.7,1a40.73,40.73,0,0,1,6.69,2.88l.23.21a93.88,93.88,0,0,1,7.7,10.83l.44.74-.66.55L44.76,18c-1.85,1.56-4.15,3.5-5.38,4.38l-.66.48-.6-.56-.59-.54-.26-.23c-.15,6.44,0,15.07.11,23.54l0,.91-.9.1A121.6,121.6,0,0,1,22.74,46.87ZM12.09,44.39a119.09,119.09,0,0,0,23.26-.19c-.16-9.28-.27-18.65,0-25.07l.1-2.61,1.67,2a16.18,16.18,0,0,0,1.75,1.74c1.26-1,3.17-2.58,4.62-3.81l.95-.8a92.61,92.61,0,0,0-7-9.74,42.59,42.59,0,0,0-6.18-2.6l-1.77-.66a6.33,6.33,0,0,1-6.12,3.87h0a6.19,6.19,0,0,1-6-3.76l-1.78.7a41.74,41.74,0,0,0-6,2.67A94.55,94.55,0,0,0,2.6,16l.94.76C5,18,6.95,19.55,8.23,20.52A16.18,16.18,0,0,0,10,18.75l1.64-2,.14,2.61C12.06,25.39,12.11,33.75,12.09,44.39Z"/><path class="cls-1" d="M11.8,20.33l-2-.07c.27-7.84-.78-11-1.7-13.87l-.29-.9,1.91-.6.28.88C11,8.76,12.07,12.14,11.8,20.33Zm23.46-.15C34.9,12,36,8.6,36.92,5.61l.27-.88,1.91.58-.28.9c-.9,2.83-1.91,6-1.57,13.88Z"/></svg>