<svg id="Layer_1" data-name="Layer 1" xmlns="http://www.w3.org/2000/svg" viewBox="0 0 42.04 51.99"><defs><style>.cls-1{fill:#001eff;}</style></defs><title>icon</title><path class="cls-1" d="M41.22,25.53a.82.82,0,0,0,.82-.82V13.63C42,10.32,38.72,8,35.9,6.71c-2-5.61-5.8-6.64-6-6.68H12.21c-.16,0-4,1.07-5.95,6.63C3.42,8,0,10.28,0,13.63v29.6A.82.82,0,0,0,.61,44L6,45.48v5.69a.82.82,0,0,0,.82.82H35.24a.82.82,0,0,0,.82-.82V45.48L41.44,44a.82.82,0,0,0,.61-.79V27.5a.82.82,0,0,0-1.64,0V38l-4.34,1.18V18.63a.82.82,0,1,0-1.64,0V46.81h-20a.82.82,0,0,0,0,1.64h20v1.9H7.63v-1.9h4.14a.82.82,0,0,0,0-1.64H7.63V18.63a.82.82,0,0,0-1.64,0V39.14L1.64,38V13.63c0-2.46,2.93-4.41,5.57-5.61l0,0a25.17,25.17,0,0,1,2.86-1.07l5,2.6V22.6a.82.82,0,0,0,1.64,0V10.38l3.86,2a.82.82,0,0,0,.75,0l4.1-2.12V22.6a.82.82,0,0,0,1.64,0V9.41l4.79-2.48a25.13,25.13,0,0,1,3,1.12l0,0c2.61,1.2,5.46,3.13,5.46,5.56V24.71A.82.82,0,0,0,41.22,25.53ZM40.4,39.66V42.6l-4.34,1.18V40.84ZM6,40.84v2.94L1.64,42.6V39.66Zm27.76-35c-.89-.32-1.53-.5-1.67-.54h0l-.15,0a.82.82,0,0,0-.44.09L27.09,7.58a.82.82,0,0,0-1.59.28v.55l-3.95,2,.11-.12,5-5.18h0l1.86-1.92,1.41-1.45A8.21,8.21,0,0,1,33.74,5.81ZM18,5.4h6.17L21.07,8.58Zm8.75-2.67-1,1H16.4l-2-2.11H27.79ZM12.19,1.78l7.73,8-.19.19-.07.07L16.79,8.53V7.86a.82.82,0,0,0-1.62-.17L10.58,5.32l-.08,0h0l-.06,0h-.33l-.09,0c-.1,0-.7.19-1.57.51A8.16,8.16,0,0,1,12.19,1.78Z"/><path class="cls-1" d="M27,30.46a.82.82,0,0,0-.82-.82H16a.82.82,0,0,0-.82.82,6.85,6.85,0,0,1-3.66,6.07.82.82,0,0,0-.44.73v6.42a.82.82,0,0,0,.82.82H30.23a.82.82,0,0,0,.82-.82V37.25a.82.82,0,0,0-.44-.73A6.85,6.85,0,0,1,27,30.46Zm2.45,12.39H12.73V37.73a8.48,8.48,0,0,0,4.06-6.45h8.57a8.48,8.48,0,0,0,4.06,6.45v5.12Z"/></svg>