<svg id="Layer_1" data-name="Layer 1" xmlns="http://www.w3.org/2000/svg" viewBox="0 0 31.42 22.26"><defs><style>.cls-1{fill:#001eff;}</style></defs><title>icon</title><path class="cls-1" d="M30.56,5.21C29,2.85,25.27,1.06,20.47.35h0l-.35,0A35.61,35.61,0,0,0,15.67,0C6.73,0,0,3.38,0,7.85V14.4c0,4.48,6.75,7.85,15.71,7.85s15.71-3.38,15.71-7.85V7.85A4.33,4.33,0,0,0,30.56,5.21ZM2.62,14.4V12.31A13.74,13.74,0,0,0,5.77,14v3.66C3.79,16.71,2.62,15.53,2.62,14.4Zm9.2,1.08v3.89a22.87,22.87,0,0,1-4.32-1V14.61A26.07,26.07,0,0,0,11.82,15.48Zm1.73,4.07V15.64c.7,0,1.42.07,2.16.07s1.46,0,2.16-.07v3.91c-.7.05-1.42.09-2.16.09S14.25,19.6,13.55,19.55Zm10.37-4.95v3.77a22.87,22.87,0,0,1-4.32,1V15.48A26.07,26.07,0,0,0,23.92,14.61Zm4.88-.21c0,1.13-1.17,2.31-3.15,3.27V14a13.74,13.74,0,0,0,3.15-1.7ZM15.71,13.09c-7.49,0-13.09-2.76-13.09-5.24s5.6-5.24,13.09-5.24S28.8,5.38,28.8,7.85,23.2,13.09,15.71,13.09Z"/><path class="cls-1" d="M15.71,6.44c1.63,0,3-.67,3-1.49s-1.33-1.49-3-1.49-3,.67-3,1.49S14.08,6.44,15.71,6.44Zm0-2.25c.83,0,1.5.34,1.5.76s-.67.76-1.5.76-1.5-.34-1.5-.76S14.88,4.2,15.71,4.2Z"/><path class="cls-1" d="M13.76,7.85c0-.82-1.33-1.49-3-1.49s-3,.67-3,1.49,1.33,1.49,3,1.49S13.76,8.68,13.76,7.85Zm-3,.76c-.83,0-1.5-.34-1.5-.76S10,7.1,10.8,7.1s1.5.34,1.5.76S11.63,8.61,10.8,8.61Z"/><path class="cls-1" d="M15.71,9.27c-1.63,0-3,.67-3,1.49s1.33,1.49,3,1.49,3-.67,3-1.49S17.34,9.27,15.71,9.27Zm0,2.25c-.83,0-1.5-.34-1.5-.76s.67-.76,1.5-.76,1.5.34,1.5.76S16.54,11.51,15.71,11.51Z"/><path class="cls-1" d="M20.62,6.37c-1.63,0-3,.67-3,1.49s1.33,1.49,3,1.49,3-.67,3-1.49S22.25,6.37,20.62,6.37Zm0,2.25c-.83,0-1.5-.34-1.5-.76s.67-.76,1.5-.76,1.5.34,1.5.76S21.45,8.61,20.62,8.61Z"/></svg>