<svg id="Layer_1" data-name="Layer 1" xmlns="http://www.w3.org/2000/svg" viewBox="0 0 31.42 35.41"><defs><style>.cls-1{fill:#001eff;}</style></defs><title>icon</title><path class="cls-1" d="M30.56,5.21C29,2.85,25.27,1.06,20.47.35h0l-.35,0A35.66,35.66,0,0,0,15.67,0C6.73,0,0,3.38,0,7.85v19.7C0,32,6.75,35.41,15.71,35.41S31.42,32,31.42,27.56V7.85A4.33,4.33,0,0,0,30.56,5.21ZM15.71,2.62c7.49,0,13.09,2.76,13.09,5.24s-5.6,5.24-13.09,5.24S2.62,10.33,2.62,7.85,8.22,2.62,15.71,2.62ZM4.31,20a19.22,19.22,0,0,0,4.47,1.6v3.82a14.25,14.25,0,0,1-4.47-1.94Zm7.5-4.48v3.89a22.86,22.86,0,0,1-4.32-1V14.6A26.06,26.06,0,0,0,11.81,15.48Zm17-3.17V14.4c0,1.13-1.18,2.31-3.16,3.27V14A13.74,13.74,0,0,0,28.8,12.31Zm-4.89,6.07a22.88,22.88,0,0,1-4.32,1V15.48a26.08,26.08,0,0,0,4.32-.87Zm-6.05,1.17c-.7.05-1.41.08-2.15.08s-1.46,0-2.17-.09V15.64c.71,0,1.43.07,2.17.07s1.45,0,2.15-.07Zm-6.05,9.09v3.89a22.86,22.86,0,0,1-4.32-1V27.76A26.09,26.09,0,0,0,11.81,28.64Zm-1.29-2.86V21.9a31.57,31.57,0,0,0,4.32.4v3.93A27.91,27.91,0,0,1,10.52,25.78Zm6.05-3.48a31.59,31.59,0,0,0,4.32-.39v3.88a27.92,27.92,0,0,1-4.32.45Zm7.34,5.47v3.77a22.9,22.9,0,0,1-4.32,1V28.64A26.11,26.11,0,0,0,23.91,27.77Zm-1.29-2.38V21.56A19.26,19.26,0,0,0,27.11,20v3.48A14.27,14.27,0,0,1,22.62,25.38Zm-20-13.07A13.74,13.74,0,0,0,5.76,14v3.66c-2-1-3.14-2.14-3.14-3.27Zm0,15.24V25.47a13.72,13.72,0,0,0,3.14,1.69v3.66C3.79,29.87,2.62,28.68,2.62,27.56Zm10.92,5.15V28.8c.71,0,1.43.07,2.17.07s1.45,0,2.15-.07v3.91c-.7.05-1.41.08-2.15.08S14.25,32.76,13.54,32.71ZM28.8,27.56c0,1.13-1.18,2.31-3.16,3.27V27.17a13.74,13.74,0,0,0,3.16-1.7Z"/><path class="cls-1" d="M15.71,6.44c1.63,0,3-.67,3-1.49s-1.33-1.49-3-1.49-3,.67-3,1.49S14.08,6.44,15.71,6.44Zm0-2.25c.83,0,1.5.34,1.5.76s-.67.76-1.5.76S14.2,5.37,14.2,5,14.88,4.2,15.71,4.2Z"/><path class="cls-1" d="M10.8,9.34c1.63,0,3-.67,3-1.49s-1.33-1.49-3-1.49-3,.67-3,1.49S9.17,9.34,10.8,9.34Zm0-2.25c.83,0,1.5.34,1.5.76s-.67.76-1.5.76-1.5-.34-1.5-.76S10,7.1,10.8,7.1Z"/><path class="cls-1" d="M15.71,9.27c-1.63,0-3,.67-3,1.49s1.33,1.49,3,1.49,3-.67,3-1.49S17.34,9.27,15.71,9.27Zm0,2.25c-.83,0-1.5-.34-1.5-.76s.67-.76,1.5-.76,1.5.34,1.5.76S16.53,11.51,15.71,11.51Z"/><path class="cls-1" d="M17.66,7.85c0,.82,1.33,1.49,3,1.49s3-.67,3-1.49-1.33-1.49-3-1.49S17.66,7,17.66,7.85Zm3-.76c.83,0,1.5.34,1.5.76s-.67.76-1.5.76-1.5-.34-1.5-.76S19.79,7.1,20.62,7.1Z"/></svg>