<svg id="Layer_1" data-name="Layer 1" xmlns="http://www.w3.org/2000/svg" viewBox="0 0 31.42 41.89"><defs><style>.cls-1{fill:#001eff;}</style></defs><title>icon</title><path class="cls-1" d="M30.56,5.21C29,2.85,25.27,1.06,20.47.35h0l-.35,0A35.61,35.61,0,0,0,15.67,0C6.73,0,0,3.38,0,7.85V34c0,4.48,6.75,7.85,15.71,7.85S31.42,38.52,31.42,34V7.85A4.33,4.33,0,0,0,30.56,5.21ZM15.71,2.62c7.49,0,13.09,2.76,13.09,5.24s-5.6,5.24-13.09,5.24S2.62,10.33,2.62,7.85,8.22,2.62,15.71,2.62Zm11.4,14.21a14.27,14.27,0,0,1-4.49,1.95V14.95a19.26,19.26,0,0,0,4.49-1.6Zm-7.51,9.1V22a26.08,26.08,0,0,0,4.32-.87v3.77A22.88,22.88,0,0,1,19.59,25.92Zm-3.88.26c-.74,0-1.46,0-2.17-.09V22.18c.71,0,1.43.07,2.17.07s1.45,0,2.15-.07V26.1C17.16,26.15,16.45,26.18,15.71,26.18ZM7.49,24.92V21.15a26,26,0,0,0,4.32.88v3.89A22.84,22.84,0,0,1,7.49,24.92Zm13.4-5.75a27.89,27.89,0,0,1-4.32.45V15.68a31.55,31.55,0,0,0,4.32-.39Zm-6.05.45a27.88,27.88,0,0,1-4.32-.45V15.29a31.57,31.57,0,0,0,4.32.4Zm-6.05-.85a14.25,14.25,0,0,1-4.47-1.94V13.35a19.24,19.24,0,0,0,4.47,1.6Zm-6.17.09a13.72,13.72,0,0,0,3.14,1.69v3.66c-2-1-3.14-2.14-3.14-3.27Zm1.7,7.58A19.23,19.23,0,0,0,8.79,28v3.82a14.25,14.25,0,0,1-4.47-1.94Zm7.5,8.68V39a22.86,22.86,0,0,1-4.32-1V34.24A26.06,26.06,0,0,0,11.81,35.12Zm-1.29-2.86V28.38a31.57,31.57,0,0,0,4.32.4v3.93A27.91,27.91,0,0,1,10.52,32.26Zm6.05-3.48a31.59,31.59,0,0,0,4.32-.39v3.88a27.92,27.92,0,0,1-4.32.45Zm7.34,5.47V38a22.9,22.9,0,0,1-4.32,1V35.12A26.11,26.11,0,0,0,23.91,34.25Zm-1.29-2.38V28a19.26,19.26,0,0,0,4.49-1.6v3.48A14.27,14.27,0,0,1,22.62,31.86ZM28.8,20.95c0,1.13-1.18,2.31-3.16,3.27V20.56a13.75,13.75,0,0,0,3.16-1.7ZM2.62,34V32a13.72,13.72,0,0,0,3.14,1.69v3.66C3.79,36.35,2.62,35.16,2.62,34Zm10.92,5.15V35.28c.71,0,1.43.07,2.17.07s1.45,0,2.15-.07v3.91c-.7.05-1.41.08-2.15.08S14.25,39.24,13.54,39.19ZM28.8,34c0,1.13-1.18,2.31-3.16,3.27V33.65A13.74,13.74,0,0,0,28.8,32Z"/><path class="cls-1" d="M15.71,6.44c1.63,0,3-.67,3-1.49s-1.33-1.49-3-1.49-3,.67-3,1.49S14.08,6.44,15.71,6.44Zm0-2.25c.83,0,1.5.34,1.5.76s-.67.76-1.5.76-1.5-.34-1.5-.76S14.88,4.2,15.71,4.2Z"/><path class="cls-1" d="M10.8,9.34c1.63,0,3-.67,3-1.49s-1.33-1.49-3-1.49-3,.67-3,1.49S9.17,9.34,10.8,9.34Zm0-2.25c.83,0,1.5.34,1.5.76s-.67.76-1.5.76-1.5-.34-1.5-.76S10,7.1,10.8,7.1Z"/><path class="cls-1" d="M15.71,9.27c-1.63,0-3,.67-3,1.49s1.33,1.49,3,1.49,3-.67,3-1.49S17.34,9.27,15.71,9.27Zm0,2.25c-.83,0-1.5-.34-1.5-.76s.67-.76,1.5-.76,1.5.34,1.5.76S16.54,11.51,15.71,11.51Z"/><path class="cls-1" d="M17.66,7.85c0,.82,1.33,1.49,3,1.49s3-.67,3-1.49-1.33-1.49-3-1.49S17.66,7,17.66,7.85Zm3-.76c.83,0,1.5.34,1.5.76s-.67.76-1.5.76-1.5-.34-1.5-.76S19.79,7.1,20.62,7.1Z"/></svg>