<svg id="Layer_1" data-name="Layer 1" xmlns="http://www.w3.org/2000/svg" viewBox="0 0 72.4 72.4"><defs><style>.cls-1{fill:#fff;}</style></defs><title>copy icon</title><path class="cls-1" d="M68.4,29.76,49.08,49.08a13.66,13.66,0,0,1-19.32,0l-6.44-6.44,6.44-6.44,6.44,6.44a4.56,4.56,0,0,0,6.44,0L62,23.32a4.56,4.56,0,0,0,0-6.44l-6.44-6.44a4.56,4.56,0,0,0-6.44,0l-6.9,6.9a18.12,18.12,0,0,0-10.43-2.45L42.64,4A13.66,13.66,0,0,1,62,4l6.44,6.44a13.66,13.66,0,0,1,0,19.32ZM30.21,55.06,23.32,62a4.56,4.56,0,0,1-6.44,0l-6.44-6.44a4.55,4.55,0,0,1,0-6.44L29.76,29.76a4.56,4.56,0,0,1,6.44,0l6.44,6.44,6.44-6.44-6.44-6.44a13.66,13.66,0,0,0-19.32,0L4,42.64A13.66,13.66,0,0,0,4,62l6.44,6.44a13.66,13.66,0,0,0,19.32,0L40.65,57.51a18.21,18.21,0,0,1-10.43-2.45Zm0,0"/></svg>