<svg id="Layer_1" data-name="Layer 1" xmlns="http://www.w3.org/2000/svg" viewBox="0 0 27.59 30.57"><defs><style>.cls-1{fill:#bfbfbf;}</style></defs><title>csdcdscsd</title><path class="cls-1" d="M13.8,10.37A5.19,5.19,0,1,0,8.61,5.19,5.19,5.19,0,0,0,13.8,10.37Zm0-7.82a2.63,2.63,0,1,1-2.63,2.63A2.64,2.64,0,0,1,13.8,2.55Z"/><path class="cls-1" d="M10.37,15.28a5.19,5.19,0,1,0-5.19,5.19A5.19,5.19,0,0,0,10.37,15.28ZM5.19,17.92a2.63,2.63,0,1,1,2.63-2.63A2.64,2.64,0,0,1,5.19,17.92Z"/><path class="cls-1" d="M13.8,20.2A5.19,5.19,0,1,0,19,25.38,5.19,5.19,0,0,0,13.8,20.2Zm0,7.82a2.63,2.63,0,1,1,2.63-2.63A2.64,2.64,0,0,1,13.8,28Z"/><path class="cls-1" d="M22.4,10.1a5.19,5.19,0,1,0,5.19,5.19A5.19,5.19,0,0,0,22.4,10.1Zm0,7.82A2.63,2.63,0,1,1,25,15.28,2.64,2.64,0,0,1,22.4,17.92Z"/></svg>